<svg xmlns="http://www.w3.org/2000/svg" width="22" height="27" viewBox="0 0 22 27">
    <g fill="none" fill-rule="evenodd">
        <path fill="#43D359" d="M10.597.039c-.317.07-.537.201-.858.51-1.062 1.025-2.247 1.852-3.214 2.245-.891.363-2.715.597-4.33.557-.77-.019-.937.005-1.282.178-.424.213-.757.63-.875 1.1-.04.156-.043.465-.033 3.264.01 3.146.014 3.275.128 4.456.534 5.55 2.612 9.836 6.052 12.479 1.262.97 2.689 1.693 4.085 2.072.321.087.403.099.688.1.288.001.364-.01.687-.098 1.645-.447 3.248-1.313 4.706-2.542.4-.338 1.315-1.274 1.66-1.699 2.245-2.769 3.527-6.322 3.894-10.795.081-.995.095-1.621.095-4.323 0-2.413-.005-2.776-.043-2.923a1.73 1.73 0 0 0-.877-1.095c-.345-.17-.517-.193-1.278-.174a15.518 15.518 0 0 1-3.276-.266c-1.222-.245-2.098-.745-3.91-2.235a26.748 26.748 0 0 0-.663-.533A1.723 1.723 0 0 0 10.597.04z"/>
        <path fill="#FFF" d="M18 9.088c.002.267-.058.455-.214.67-.064.088-1.839 1.941-3.946 4.12-3.637 3.76-3.837 3.963-4.005 4.04-.154.072-.21.082-.435.082-.236 0-.274-.008-.448-.093-.181-.088-.3-.205-2.477-2.464-2.47-2.562-2.392-2.472-2.459-2.847-.12-.684.45-1.33 1.13-1.275.405.032.307-.054 2.387 2.099L9.4 15.353l3.46-3.579c1.902-1.969 3.502-3.606 3.556-3.639.235-.145.617-.178.894-.077.398.144.686.574.69 1.03z"/>
    </g>
</svg>
