<svg width="651" height="651" viewBox="0 0 651 651" xmlns="http://www.w3.org/2000/svg" xmlns:xlink="http://www.w3.org/1999/xlink" style="background:#fff"><title>city</title><defs><circle id="a" cx="326" cy="326" r="325"/></defs><g fill="none" fill-rule="evenodd"><mask id="b" fill="#fff"><use xlink:href="#a"/></mask><g fill="#314358" fill-rule="nonzero" mask="url(#b)"><path d="M520.502 512.307c-43.188 0-82.328 17.41-110.733 45.588 30.304 20.131 44.714 57.8 35.057 111.22h232.777c0-86.608-70.339-156.808-157.101-156.808z"/><path d="M346.103 570.553c-54.533 0-98.718 44.14-98.718 98.561H444.82c0-54.421-44.212-98.56-98.717-98.56zM587.947 72.92V34H456.074v38.92H371l.115 18.198h-.027v262.869l41.84 41.076V116.12h45.043v351.655h41.84V116.12h45.124v351.655h41.84V116.12h48.071v381.235L678 535V72.92z"/><g><path d="M346.492 397.864h-199.76l-22.146 271.022h79.99c0-78.177 63.676-141.768 141.943-141.768 10.242 0 20.212 1.132 29.844 3.205l3.412-3.367c10.323-10.244 21.616-19.092 33.574-26.728V467.01l-66.857-69.146zM0 292.647v376.24H124.213v-376.24L61.581 139.823 0 292.647zm94.104 60.895c0 17.256-14 31.266-31.33 31.266-17.295 0-31.302-14.01-31.302-31.266 0-17.277 14-31.26 31.303-31.26 17.33 0 31.33 13.983 31.33 31.26z"/></g></g></g></svg>